<svg width="2480" height="3508" viewBox="0 0 2480 3508" fill="none" xmlns="http://www.w3.org/2000/svg">
<g filter="url(#filter0_f_1_579)">
<ellipse rx="1144.24" ry="1921.11" transform="matrix(-0.571464 0.820627 0.820627 0.571464 2181.41 615.84)" fill="#414141"/>
</g>
<g filter="url(#filter1_f_1_579)">
<ellipse rx="1114.04" ry="2037.7" transform="matrix(-0.571464 0.820627 0.820627 0.571464 2498.19 3226.45)" fill="url(#paint0_linear_1_579)"/>
</g>
<g filter="url(#filter2_f_1_579)">
<ellipse rx="1137.53" ry="2047.45" transform="matrix(-0.571464 0.820627 0.820627 0.571464 -295.747 2323.53)" fill="#3D3D3D"/>
</g>
<g filter="url(#filter3_f_1_579)">
<path d="M-358.816 -1458.48C-2125.95 -1880.13 -114.148 -805.673 -261.327 -188.853C-408.507 427.967 -2658.93 353.574 -891.801 775.228C875.328 1196.88 2290.65 3532.08 2437.83 2915.26C2585.01 2298.44 1408.31 -1036.82 -358.816 -1458.48Z" fill="#151515"/>
</g>
<defs>
<filter id="filter0_f_1_579" x="-525.784" y="-1828.82" width="5414.38" height="4889.32" filterUnits="userSpaceOnUse" color-interpolation-filters="sRGB">
<feFlood flood-opacity="0" result="BackgroundImageFix"/>
<feBlend mode="normal" in="SourceGraphic" in2="BackgroundImageFix" result="shape"/>
<feGaussianBlur stdDeviation="500" result="effect1_foregroundBlur_1_579"/>
</filter>
<filter id="filter1_f_1_579" x="-291.574" y="745.925" width="5579.53" height="4961.05" filterUnits="userSpaceOnUse" color-interpolation-filters="sRGB">
<feFlood flood-opacity="0" result="BackgroundImageFix"/>
<feBlend mode="normal" in="SourceGraphic" in2="BackgroundImageFix" result="shape"/>
<feGaussianBlur stdDeviation="500" result="effect1_foregroundBlur_1_579"/>
</filter>
<filter id="filter2_f_1_579" x="-3097.8" y="-173.322" width="5604.1" height="4993.71" filterUnits="userSpaceOnUse" color-interpolation-filters="sRGB">
<feFlood flood-opacity="0" result="BackgroundImageFix"/>
<feBlend mode="normal" in="SourceGraphic" in2="BackgroundImageFix" result="shape"/>
<feGaussianBlur stdDeviation="500" result="effect1_foregroundBlur_1_579"/>
</filter>
<filter id="filter3_f_1_579" x="-2065.63" y="-2054" width="5015.86" height="5572.35" filterUnits="userSpaceOnUse" color-interpolation-filters="sRGB">
<feFlood flood-opacity="0" result="BackgroundImageFix"/>
<feBlend mode="normal" in="SourceGraphic" in2="BackgroundImageFix" result="shape"/>
<feGaussianBlur stdDeviation="250" result="effect1_foregroundBlur_1_579"/>
</filter>
<linearGradient id="paint0_linear_1_579" x1="-218.963" y1="4014.25" x2="3481.21" y2="2473.67" gradientUnits="userSpaceOnUse">
<stop stop-color="#0FE2FF"/>
<stop offset="1" stop-color="#0FE2FF"/>
</linearGradient>
</defs>
</svg>
